<mxfile host="app.diagrams.net" modified="2024-02-20T11:50:02.730Z" agent="Mozilla/5.0 (X11; Linux x86_64; rv:122.0) Gecko/20100101 Firefox/122.0" version="23.1.5" etag="1F52H6yVPQIVGiV40BPI" type="device">
  <diagram id="r-rISPMmO1dXQc9Pj4ew" name="Seite-1">
    <mxGraphModel dx="3159" dy="794" grid="1" gridSize="10" guides="1" tooltips="1" connect="1" arrows="1" fold="1" page="1" pageScale="1" pageWidth="1654" pageHeight="1169" math="0" shadow="0">
      <root>
        <mxCell id="0" />
        <mxCell id="1" parent="0" />
        <mxCell id="3" value="&lt;font style=&quot;font-size: 24px;&quot;&gt;&lt;font color=&quot;#ff0000&quot;&gt;Bank, Bankkunde,&lt;br&gt;Kreditkarte,&lt;br&gt;Bankautomat,&lt;br&gt;Kontoart&lt;/font&gt;&lt;br&gt;&lt;/font&gt;" style="text;html=1;strokeColor=none;fillColor=none;align=center;verticalAlign=middle;whiteSpace=wrap;rounded=0;" parent="1" vertex="1">
          <mxGeometry x="-330" y="14" width="180" height="150" as="geometry" />
        </mxCell>
        <mxCell id="5" value="Bank" style="swimlane;fontStyle=0;childLayout=stackLayout;horizontal=1;startSize=26;fillColor=#f0a30a;horizontalStack=0;resizeParent=1;resizeParentMax=0;resizeLast=0;collapsible=1;marginBottom=0;html=1;fontSize=24;strokeColor=#BD7000;fontColor=#000000;" parent="1" vertex="1">
          <mxGeometry x="480" y="14" width="540" height="150" as="geometry" />
        </mxCell>
        <mxCell id="6" value="&lt;font&gt;- kunden: std::vector&amp;lt;KundenID&amp;gt;&lt;/font&gt;" style="text;strokeColor=#BD7000;fillColor=none;align=left;verticalAlign=top;spacingLeft=4;spacingRight=4;overflow=hidden;rotatable=0;points=[[0,0.5],[1,0.5]];portConstraint=eastwest;whiteSpace=wrap;html=1;fontSize=24;fontColor=#00FF00;" parent="5" vertex="1">
          <mxGeometry y="26" width="540" height="64" as="geometry" />
        </mxCell>
        <mxCell id="7" value="&lt;font&gt;+ kontoprÃ¼fung(kundenKonto: Konto) -&amp;gt; bool&lt;/font&gt;" style="text;strokeColor=none;fillColor=none;align=left;verticalAlign=top;spacingLeft=4;spacingRight=4;overflow=hidden;rotatable=0;points=[[0,0.5],[1,0.5]];portConstraint=eastwest;whiteSpace=wrap;html=1;fontSize=24;fontColor=#33FF33;" parent="5" vertex="1">
          <mxGeometry y="90" width="540" height="60" as="geometry" />
        </mxCell>
        <mxCell id="9" value="Bankkunde" style="swimlane;fontStyle=0;childLayout=stackLayout;horizontal=1;startSize=26;fillColor=#f0a30a;horizontalStack=0;resizeParent=1;resizeParentMax=0;resizeLast=0;collapsible=1;marginBottom=0;html=1;fontSize=24;fontColor=#000000;strokeColor=#BD7000;" parent="1" vertex="1">
          <mxGeometry y="110" width="460" height="340" as="geometry" />
        </mxCell>
        <mxCell id="24" value="&lt;div&gt;&lt;font&gt;+ kundenID: uint&lt;/font&gt;&lt;/div&gt;" style="text;strokeColor=none;fillColor=none;align=left;verticalAlign=top;spacingLeft=4;spacingRight=4;overflow=hidden;rotatable=0;points=[[0,0.5],[1,0.5]];portConstraint=eastwest;whiteSpace=wrap;html=1;fontSize=24;fontColor=#00FF00;" parent="9" vertex="1">
          <mxGeometry y="26" width="460" height="40" as="geometry" />
        </mxCell>
        <mxCell id="10" value="&lt;font data-darkreader-inline-color=&quot;&quot; style=&quot;--darkreader-inline-color: #3dff3d;&quot; color=&quot;#33ff33&quot;&gt;- kreditkarte: Kreditkarte&lt;br&gt;&lt;/font&gt;" style="text;strokeColor=#2D7600;fillColor=none;align=left;verticalAlign=top;spacingLeft=4;spacingRight=4;overflow=hidden;rotatable=0;points=[[0,0.5],[1,0.5]];portConstraint=eastwest;whiteSpace=wrap;html=1;fontSize=24;fontColor=#ffffff;" parent="9" vertex="1">
          <mxGeometry y="66" width="460" height="44" as="geometry" />
        </mxCell>
        <mxCell id="32" value="&lt;font data-darkreader-inline-color=&quot;&quot; style=&quot;--darkreader-inline-color: #1aff1a;&quot; color=&quot;#00ff00&quot;&gt;- konto: Konto&lt;br&gt;&lt;/font&gt;" style="text;strokeColor=none;fillColor=none;align=left;verticalAlign=top;spacingLeft=4;spacingRight=4;overflow=hidden;rotatable=0;points=[[0,0.5],[1,0.5]];portConstraint=eastwest;whiteSpace=wrap;html=1;fontSize=24;fontColor=#FFFFFF;" parent="9" vertex="1">
          <mxGeometry y="110" width="460" height="44" as="geometry" />
        </mxCell>
        <mxCell id="11" value="+ Karte beantragen() -&amp;gt; bool" style="text;strokeColor=none;fillColor=none;align=left;verticalAlign=top;spacingLeft=4;spacingRight=4;overflow=hidden;rotatable=0;points=[[0,0.5],[1,0.5]];portConstraint=eastwest;whiteSpace=wrap;html=1;fontSize=24;" parent="9" vertex="1">
          <mxGeometry y="154" width="460" height="60" as="geometry" />
        </mxCell>
        <mxCell id="12" value="&lt;font data-darkreader-inline-color=&quot;&quot; style=&quot;--darkreader-inline-color: #1aff1a;&quot; color=&quot;#00ff00&quot;&gt;+ abheben(betrag: double) -&amp;gt; void&lt;/font&gt;" style="text;strokeColor=none;fillColor=none;align=left;verticalAlign=top;spacingLeft=4;spacingRight=4;overflow=hidden;rotatable=0;points=[[0,0.5],[1,0.5]];portConstraint=eastwest;whiteSpace=wrap;html=1;fontSize=24;" parent="9" vertex="1">
          <mxGeometry y="214" width="460" height="40" as="geometry" />
        </mxCell>
        <mxCell id="18" value="&lt;div&gt;&lt;font data-darkreader-inline-color=&quot;&quot; style=&quot;--darkreader-inline-color: #3dff3d;&quot; color=&quot;#33ff33&quot;&gt;+ abfrageKonto() -&amp;gt; double&lt;/font&gt;&lt;/div&gt;" style="text;strokeColor=none;fillColor=none;align=left;verticalAlign=top;spacingLeft=4;spacingRight=4;overflow=hidden;rotatable=0;points=[[0,0.5],[1,0.5]];portConstraint=eastwest;whiteSpace=wrap;html=1;fontSize=24;" parent="9" vertex="1">
          <mxGeometry y="254" width="460" height="46" as="geometry" />
        </mxCell>
        <mxCell id="17" value="&lt;font data-darkreader-inline-color=&quot;&quot; style=&quot;--darkreader-inline-color: #3dff3d;&quot; color=&quot;#33ff33&quot;&gt;+ einzahlen(betrag: double) -&amp;gt; void&lt;/font&gt;" style="text;strokeColor=none;fillColor=none;align=left;verticalAlign=top;spacingLeft=4;spacingRight=4;overflow=hidden;rotatable=0;points=[[0,0.5],[1,0.5]];portConstraint=eastwest;whiteSpace=wrap;html=1;fontSize=24;" parent="9" vertex="1">
          <mxGeometry y="300" width="460" height="40" as="geometry" />
        </mxCell>
        <mxCell id="34" style="edgeStyle=none;html=1;exitX=0.5;exitY=0;exitDx=0;exitDy=0;fontColor=#FFFFFF;endArrow=diamondThin;endFill=1;entryX=0.573;entryY=1.104;entryDx=0;entryDy=0;entryPerimeter=0;" parent="1" source="13" target="17" edge="1">
          <mxGeometry relative="1" as="geometry" />
        </mxCell>
        <mxCell id="13" value="Kreditkarte" style="swimlane;fontStyle=0;childLayout=stackLayout;horizontal=1;startSize=26;fillColor=#f0a30a;horizontalStack=0;resizeParent=1;resizeParentMax=0;resizeLast=0;collapsible=1;marginBottom=0;html=1;fontSize=24;fontColor=#000000;strokeColor=#BD7000;" parent="1" vertex="1">
          <mxGeometry x="360" y="510" width="440" height="266" as="geometry" />
        </mxCell>
        <mxCell id="19" value="- aktiv: bool" style="text;strokeColor=none;fillColor=none;align=left;verticalAlign=top;spacingLeft=4;spacingRight=4;overflow=hidden;rotatable=0;points=[[0,0.5],[1,0.5]];portConstraint=eastwest;whiteSpace=wrap;html=1;fontSize=24;" parent="13" vertex="1">
          <mxGeometry y="26" width="440" height="40" as="geometry" />
        </mxCell>
        <mxCell id="35" value="&lt;span style=&quot;font-size: 24px;&quot;&gt;- kartenNr: std::vector&amp;lt;int&amp;gt; //(?) &lt;br&gt;&lt;/span&gt;" style="text;strokeColor=none;fillColor=none;align=left;verticalAlign=top;spacingLeft=4;spacingRight=4;overflow=hidden;rotatable=0;points=[[0,0.5],[1,0.5]];portConstraint=eastwest;whiteSpace=wrap;html=1;" parent="13" vertex="1">
          <mxGeometry y="66" width="440" height="50" as="geometry" />
        </mxCell>
        <mxCell id="36" value="&lt;span style=&quot;font-size: 24px;&quot;&gt;+ getKartennr() -&amp;gt; vector&lt;/span&gt;" style="text;strokeColor=none;fillColor=none;align=left;verticalAlign=top;spacingLeft=4;spacingRight=4;overflow=hidden;rotatable=0;points=[[0,0.5],[1,0.5]];portConstraint=eastwest;whiteSpace=wrap;html=1;" parent="13" vertex="1">
          <mxGeometry y="116" width="440" height="50" as="geometry" />
        </mxCell>
        <mxCell id="37" value="&lt;span style=&quot;font-size: 24px;&quot;&gt;+ getStatus() -&amp;gt; bool&lt;/span&gt;" style="text;strokeColor=none;fillColor=none;align=left;verticalAlign=top;spacingLeft=4;spacingRight=4;overflow=hidden;rotatable=0;points=[[0,0.5],[1,0.5]];portConstraint=eastwest;whiteSpace=wrap;html=1;" parent="13" vertex="1">
          <mxGeometry y="166" width="440" height="50" as="geometry" />
        </mxCell>
        <mxCell id="28" value="&lt;span style=&quot;font-size: 24px;&quot;&gt;+ genKartennr.() -&amp;gt; vector&lt;/span&gt;" style="text;strokeColor=none;fillColor=none;align=left;verticalAlign=top;spacingLeft=4;spacingRight=4;overflow=hidden;rotatable=0;points=[[0,0.5],[1,0.5]];portConstraint=eastwest;whiteSpace=wrap;html=1;" parent="13" vertex="1">
          <mxGeometry y="216" width="440" height="50" as="geometry" />
        </mxCell>
        <mxCell id="20" value="Bankautomat" style="swimlane;fontStyle=0;childLayout=stackLayout;horizontal=1;startSize=26;fillColor=#f0a30a;horizontalStack=0;resizeParent=1;resizeParentMax=0;resizeLast=0;collapsible=1;marginBottom=0;html=1;fontSize=24;fontColor=#000000;strokeColor=#BD7000;" parent="1" vertex="1">
          <mxGeometry x="480" y="240" width="590" height="80" as="geometry" />
        </mxCell>
        <mxCell id="21" value="+ zifferpruefung(&lt;span style=&quot;text-align: center;&quot;&gt;&lt;font data-darkreader-inline-color=&quot;&quot; style=&quot;--darkreader-inline-color: #e8e6e3;&quot; color=&quot;#ffffff&quot;&gt;kundenKarte: Kreditkarte&lt;/font&gt;&lt;/span&gt;) -&amp;gt; bool" style="text;strokeColor=none;fillColor=none;align=left;verticalAlign=top;spacingLeft=4;spacingRight=4;overflow=hidden;rotatable=0;points=[[0,0.5],[1,0.5]];portConstraint=eastwest;whiteSpace=wrap;html=1;fontSize=24;" parent="20" vertex="1">
          <mxGeometry y="26" width="590" height="54" as="geometry" />
        </mxCell>
        <mxCell id="33" style="edgeStyle=none;html=1;exitX=0.5;exitY=0;exitDx=0;exitDy=0;fontColor=#FFFFFF;endArrow=diamondThin;endFill=1;" parent="1" source="25" edge="1">
          <mxGeometry relative="1" as="geometry">
            <mxPoint x="140" y="450" as="targetPoint" />
          </mxGeometry>
        </mxCell>
        <mxCell id="25" value="Konto" style="swimlane;fontStyle=0;childLayout=stackLayout;horizontal=1;startSize=26;fillColor=#f0a30a;horizontalStack=0;resizeParent=1;resizeParentMax=0;resizeLast=0;collapsible=1;marginBottom=0;html=1;fontSize=24;fontColor=#000000;strokeColor=#BD7000;" parent="1" vertex="1">
          <mxGeometry y="630" width="280" height="128" as="geometry" />
        </mxCell>
        <mxCell id="26" value="&lt;font&gt;- kontoNr: uint&lt;br&gt;&lt;/font&gt;" style="text;strokeColor=none;fillColor=none;align=left;verticalAlign=top;spacingLeft=4;spacingRight=4;overflow=hidden;rotatable=0;points=[[0,0.5],[1,0.5]];portConstraint=eastwest;whiteSpace=wrap;html=1;fontSize=24;fontColor=#33FF33;" parent="25" vertex="1">
          <mxGeometry y="26" width="280" height="44" as="geometry" />
        </mxCell>
        <mxCell id="27" value="&lt;font&gt;- kontostand: double&lt;br&gt;&lt;/font&gt;" style="text;strokeColor=none;fillColor=none;align=left;verticalAlign=top;spacingLeft=4;spacingRight=4;overflow=hidden;rotatable=0;points=[[0,0.5],[1,0.5]];portConstraint=eastwest;whiteSpace=wrap;html=1;fontSize=24;fontColor=#00FF00;" parent="25" vertex="1">
          <mxGeometry y="70" width="280" height="58" as="geometry" />
        </mxCell>
      </root>
    </mxGraphModel>
  </diagram>
</mxfile>
